<svg width="64" height="64" fill="none" xmlns="http://www.w3.org/2000/svg"><path d="M18.661 26.283v11.431" stroke="#F67ACB" stroke-width="1.5" stroke-linecap="round" stroke-linejoin="round"/><path clip-rule="evenodd" d="M32 56.01v0C18.74 56.01 7.99 45.26 7.99 32v0C7.99 18.74 18.74 7.99 32 7.99v0c13.26 0 24.01 10.75 24.01 24.01v0c0 13.26-10.75 24.01-24.01 24.01v0z" stroke="#F67ACB" stroke-width="1.5" stroke-linecap="round" stroke-linejoin="round"/><path d="M32.301 26.283h-3.174a2.542 2.542 0 0 0-2.54 2.542v6.35a2.54 2.54 0 0 0 2.54 2.54H32.3" stroke="#F67ACB" stroke-width="1.5" stroke-linecap="round" stroke-linejoin="round"/><path clip-rule="evenodd" d="M43.717 38.002h-2a2.668 2.668 0 0 1-2.669-2.667v-6.67a2.668 2.668 0 0 1 2.668-2.668h2a2.668 2.668 0 0 1 2.669 2.668v6.67a2.668 2.668 0 0 1-2.668 2.667z" stroke="#F67ACB" stroke-width="1.5" stroke-linecap="round" stroke-linejoin="round"/></svg>