<svg width="208" height="56" fill="none" xmlns="http://www.w3.org/2000/svg"><path stroke="#F67ACB" d="M.5.5h207v55H.5z"/><path fill-rule="evenodd" clip-rule="evenodd" d="M85.773 23.227a6.75 6.75 0 1 1-9.546 9.546 6.75 6.75 0 0 1 9.546-9.546z" fill="#F67ACB"/><path d="M106.32 33v-2.032h-5.168V21.8h-2.288V33h7.456zm.486-4.128c0 2.432 1.904 4.288 4.416 4.288 2.512 0 4.416-1.856 4.416-4.288 0-2.432-1.904-4.288-4.416-4.288-2.512 0-4.416 1.856-4.416 4.288zm2.24 0c0-1.312.944-2.304 2.176-2.304 1.248 0 2.176.992 2.176 2.304 0 1.328-.928 2.32-2.176 2.32-1.232 0-2.176-.992-2.176-2.32zm14.083-3.184c-.64-.688-1.536-1.104-2.624-1.104-2.256 0-3.968 1.808-3.968 4.16 0 2.352 1.712 4.16 3.968 4.16 1.088 0 1.984-.416 2.624-1.104v.272c0 1.36-1.008 2.32-2.256 2.32-.88 0-1.52-.496-1.904-1.28l-1.936 1.024c.704 1.312 2.096 2.224 3.84 2.224 2.512 0 4.416-1.856 4.416-4.288v-7.328h-2.16v.944zm-2.176 5.248c-1.232 0-2.176-.944-2.176-2.192 0-1.248.944-2.176 2.176-2.176 1.248 0 2.176.928 2.176 2.176 0 1.248-.928 2.192-2.176 2.192zm5.58-2.064c0 2.432 1.904 4.288 4.416 4.288 2.512 0 4.416-1.856 4.416-4.288 0-2.432-1.904-4.288-4.416-4.288-2.512 0-4.416 1.856-4.416 4.288zm2.24 0c0-1.312.944-2.304 2.176-2.304 1.248 0 2.176.992 2.176 2.304 0 1.328-.928 2.32-2.176 2.32-1.232 0-2.176-.992-2.176-2.32z" fill="#fff"/></svg>