<svg width="70" height="19" fill="none" xmlns="http://www.w3.org/2000/svg"><path d="M63.718 0v12.529c0 2.4 1.946 4.346 4.346 4.346h1.279M60.343 5.625h9M2.125 0v18" stroke="#fff" stroke-width="3.034"/><rect x="2.517" y="6.017" width="10.465" height="10.465" rx="5.233" stroke="#fff" stroke-width="3.034"/><mask id="b" mask-type="alpha" maskUnits="userSpaceOnUse" x="16" y="4" width="21" height="14"><rect x="16.75" y="4.5" width="20.25" height="13.5" rx="6.75" fill="url(#a)"/></mask><g mask="url(#b)"><rect opacity=".9" x="18.267" y="6.017" width="17.215" height="10.465" rx="5.233" stroke="#fff" stroke-width="3.034"/></g><rect x="25.017" y="6.017" width="17.215" height="10.465" rx="5.233" stroke="#fff" stroke-width="3.034"/><path d="M57.811 5.625h-8.085a2.812 2.812 0 0 0 0 5.625h2.171M51.194 11.25h3.273a2.813 2.813 0 0 1 0 5.625H46" stroke="#fff" stroke-width="3.034"/><defs><linearGradient id="a" x1="16.047" y1="9" x2="32.921" y2="8.086" gradientUnits="userSpaceOnUse"><stop stop-color="#fff"/><stop offset="1" stop-color="#C4C4C4" stop-opacity="0"/></linearGradient></defs></svg>