<svg width="176" height="40" fill="none" xmlns="http://www.w3.org/2000/svg"><path stroke="#F67ACB" d="M.5.5h175v39H.5z"/><path fill-rule="evenodd" clip-rule="evenodd" d="M70.523 15.227a6.75 6.75 0 1 1-9.546 9.546 6.75 6.75 0 0 1 9.546-9.546z" fill="#F67ACB"/><path d="M90.206 23.92v-2.032h-5.168V12.72H82.75v11.2h7.456zM90.692 19.792c0 2.432 1.904 4.288 4.416 4.288 2.511 0 4.415-1.856 4.415-4.288 0-2.432-1.903-4.288-4.415-4.288-2.513 0-4.416 1.856-4.416 4.288zm2.24 0c0-1.312.944-2.304 2.175-2.304 1.249 0 2.177.992 2.177 2.304 0 1.328-.928 2.32-2.177 2.32-1.231 0-2.175-.992-2.175-2.32zM107.014 16.608c-.64-.688-1.536-1.104-2.624-1.104-2.256 0-3.968 1.808-3.968 4.16 0 2.352 1.712 4.16 3.968 4.16 1.088 0 1.984-.416 2.624-1.104v.272c0 1.36-1.008 2.32-2.256 2.32-.88 0-1.52-.496-1.904-1.28l-1.936 1.024c.704 1.312 2.096 2.224 3.84 2.224 2.512 0 4.416-1.856 4.416-4.288v-7.328h-2.16v.944zm-2.176 5.248c-1.232 0-2.176-.944-2.176-2.192 0-1.248.944-2.176 2.176-2.176 1.248 0 2.176.928 2.176 2.176 0 1.248-.928 2.192-2.176 2.192zM110.418 19.792c0 2.432 1.904 4.288 4.416 4.288 2.512 0 4.416-1.856 4.416-4.288 0-2.432-1.904-4.288-4.416-4.288-2.512 0-4.416 1.856-4.416 4.288zm2.24 0c0-1.312.944-2.304 2.176-2.304 1.248 0 2.176.992 2.176 2.304 0 1.328-.928 2.32-2.176 2.32-1.232 0-2.176-.992-2.176-2.32z" fill="#050110"/></svg>